<svg width="32" height="32" viewBox="0 0 32 32" fill="none" xmlns="http://www.w3.org/2000/svg">
<g id="facebook circle" clip-path="url(#clip0_72_850)">
<g id="facebook circle_2">
<path id="Ellipse 2" d="M16 32C24.8366 32 32 24.8366 32 16C32 7.16344 24.8366 0 16 0C7.16344 0 0 7.16344 0 16C0 24.8366 7.16344 32 16 32Z" fill="#3C5A9A"/>
<path id="Path 21" d="M21.2026 4.91104H17.6583C15.555 4.91104 13.2154 5.79584 13.2154 8.84448C13.2257 9.90688 13.2154 10.9245 13.2154 12.0694H10.7834V15.9414H13.2919V27.0886H17.9015V15.8678H20.9441L21.2193 12.0598H17.8222C17.8222 12.0598 17.8298 10.3638 17.8222 9.87328C17.8222 8.66848 19.0759 8.73728 19.1511 8.73728C19.7476 8.73728 20.9076 8.73888 21.2055 8.73728V4.91104H21.2026Z" fill="white"/>
</g>
</g>
<defs>
<clipPath id="clip0_72_850">
<rect width="32" height="32" fill="white"/>
</clipPath>
</defs>
</svg>
