<svg width="24" height="24" viewBox="0 0 32 32" fill="none" xmlns="http://www.w3.org/2000/svg">
<path id="linkedin circle" d="M15.9984 8.06675e-08C12.834 0.000317827 9.74069 0.938971 7.10971 2.69727C4.47874 4.45556 2.42823 6.95453 1.21747 9.87818C0.00671783 12.8018 -0.309906 16.0188 0.307639 19.1224C0.925183 22.226 2.44916 25.0768 4.68687 27.3143C6.92457 29.5517 9.7755 31.0754 12.8792 31.6927C15.9828 32.3099 19.1998 31.993 22.1233 30.7819C25.0468 29.5709 27.5456 27.5201 29.3036 24.889C31.0617 22.2578 32 19.1644 32 16C32 13.8987 31.5861 11.818 30.7819 9.87669C29.9777 7.93538 28.799 6.17148 27.3131 4.68572C25.8272 3.19996 24.0632 2.02145 22.1218 1.21747C20.1804 0.413486 18.0997 -0.000210913 15.9984 8.06675e-08ZM11.7294 23.7351H8.21609V12.3858H11.7294V23.7351ZM9.95635 10.8994C9.5414 10.9028 9.13481 10.7828 8.78815 10.5547C8.4415 10.3266 8.17041 10.0007 8.00929 9.61833C7.84817 9.23592 7.80428 8.81428 7.88318 8.40689C7.96208 7.9995 8.16023 7.62474 8.45247 7.33014C8.74471 7.03555 9.11788 6.83441 9.52462 6.75225C9.93136 6.67008 10.3533 6.7106 10.737 6.86865C11.1207 7.0267 11.4488 7.29517 11.6796 7.63999C11.9105 7.9848 12.0337 8.39042 12.0337 8.80538C12.0358 9.35851 11.8182 9.88984 11.4286 10.2825C11.039 10.6752 10.5095 10.8971 9.95635 10.8994ZM24.8944 23.7351H21.3985V17.7778C21.3985 16.1439 20.7777 15.2317 19.4857 15.2317C18.0796 15.2317 17.345 16.1815 17.345 17.7778V23.7351H13.9757V12.3858H17.345V13.9143C17.7047 13.3331 18.2088 12.855 18.8081 12.5264C19.4075 12.1978 20.0817 12.0301 20.7651 12.0394C23.1718 12.0394 24.8944 13.5088 24.8944 16.5488V23.7351Z" fill="url(#paint0_linear_72_855)"/>
<defs>
<linearGradient id="paint0_linear_72_855" x1="-63.072" y1="83.52" x2="-40.448" y2="106.144" gradientUnits="userSpaceOnUse">
<stop stop-color="#2489BE"/>
<stop offset="1" stop-color="#0575B3"/>
</linearGradient>
</defs>
</svg>
