<svg width="33" height="33" viewBox="0 0 33 33" fill="none" xmlns="http://www.w3.org/2000/svg">
<g id="instagram" clip-path="url(#clip0_72_856)">
<path id="Path 16" d="M8.36809 32.8832C7.09167 32.869 5.82726 32.6349 4.63035 32.1912C3.75632 31.8681 2.96554 31.3538 2.31582 30.6858C1.64604 30.0374 1.13096 29.2464 0.808824 28.3716C0.365508 27.1747 0.131735 25.9104 0.117765 24.6342C0.0197353 22.5125 0 21.8761 0 16.5C0 11.1239 0.0216765 10.4898 0.116794 8.36647C0.13246 7.09072 0.366521 5.82708 0.808824 4.63035C1.13252 3.75618 1.64688 2.96508 2.31453 2.31453C2.96344 1.64535 3.75459 1.13074 4.62938 0.808824C5.82629 0.365141 7.0907 0.131039 8.36712 0.116794C10.4895 0.0197353 11.1268 0 16.5 0C21.8732 0 22.5102 0.0216765 24.6335 0.116794C25.9096 0.13235 27.1736 0.366412 28.3706 0.808824C29.245 1.13117 30.036 1.6456 30.6851 2.31421C31.354 2.96361 31.8686 3.75475 32.1912 4.62938C32.635 5.82627 32.8692 7.09068 32.8835 8.36712C32.9806 10.4904 33.0003 11.1262 33.0003 16.5006C33.0003 21.8751 32.9806 22.5109 32.8835 24.6342C32.8681 25.9104 32.6339 27.1745 32.1912 28.3716C31.8563 29.2397 31.3433 30.028 30.6853 30.6859C30.0273 31.3437 29.2388 31.8565 28.3706 32.1912C27.1737 32.635 25.9093 32.8692 24.6329 32.8835C22.5115 32.9806 21.8738 33.0003 16.4994 33.0003C11.1249 33.0003 10.4891 32.9816 8.36777 32.8835" fill="url(#paint0_radial_72_856)"/>
<path id="Path 17" d="M8.36809 32.8832C7.09167 32.869 5.82726 32.6349 4.63035 32.1912C3.75632 31.8681 2.96554 31.3538 2.31582 30.6858C1.64604 30.0374 1.13096 29.2464 0.808824 28.3716C0.365508 27.1747 0.131735 25.9104 0.117765 24.6342C0.0197353 22.5125 0 21.8761 0 16.5C0 11.1239 0.0216765 10.4898 0.116794 8.36647C0.13246 7.09072 0.366521 5.82708 0.808824 4.63035C1.13252 3.75618 1.64688 2.96508 2.31453 2.31453C2.96344 1.64535 3.75459 1.13074 4.62938 0.808824C5.82629 0.365141 7.0907 0.131039 8.36712 0.116794C10.4895 0.0197353 11.1268 0 16.5 0C21.8732 0 22.5102 0.0216765 24.6335 0.116794C25.9096 0.13235 27.1736 0.366412 28.3706 0.808824C29.245 1.13117 30.036 1.6456 30.6851 2.31421C31.354 2.96361 31.8686 3.75475 32.1912 4.62938C32.635 5.82627 32.8692 7.09068 32.8835 8.36712C32.9806 10.4904 33.0003 11.1262 33.0003 16.5006C33.0003 21.8751 32.9806 22.5109 32.8835 24.6342C32.8681 25.9104 32.6339 27.1745 32.1912 28.3716C31.8563 29.2397 31.3433 30.028 30.6853 30.6859C30.0273 31.3437 29.2388 31.8565 28.3706 32.1912C27.1737 32.635 25.9093 32.8692 24.6329 32.8835C22.5115 32.9806 21.8738 33.0003 16.4994 33.0003C11.1249 33.0003 10.4891 32.9816 8.36777 32.8835" fill="url(#paint1_radial_72_856)"/>
<path id="Path 18" d="M12.4486 16.5702C12.4486 15.762 12.6884 14.9719 13.1375 14.2999C13.5866 13.6279 14.2248 13.1042 14.9716 12.7949C15.7183 12.4857 16.54 12.4049 17.3327 12.5626C18.1254 12.7204 18.8535 13.1097 19.425 13.6813C19.9964 14.2529 20.3855 14.9811 20.5431 15.7738C20.7007 16.5665 20.6197 17.3882 20.3103 18.1349C20.0009 18.8816 19.477 19.5197 18.8049 19.9687C18.1328 20.4176 17.3427 20.6572 16.5344 20.657C15.4507 20.6569 14.4113 20.2262 13.6451 19.4598C12.8789 18.6934 12.4485 17.654 12.4486 16.5702V16.5702ZM10.2392 16.5702C10.2392 17.8153 10.6084 19.0324 11.3001 20.0677C11.9918 21.1029 12.975 21.9098 14.1253 22.3863C15.2756 22.8627 16.5414 22.9874 17.7625 22.7445C18.9837 22.5016 20.1054 21.902 20.9858 21.0216C21.8662 20.1412 22.4658 19.0195 22.7087 17.7983C22.9516 16.5772 22.8269 15.3114 22.3504 14.1611C21.874 13.0108 21.0671 12.0276 20.0318 11.3359C18.9966 10.6442 17.7795 10.275 16.5344 10.275C15.7077 10.2749 14.8891 10.4377 14.1253 10.7541C13.3615 11.0704 12.6675 11.5341 12.0829 12.1187C11.4983 12.7033 11.0346 13.3973 10.7183 14.1611C10.4019 14.9249 10.2391 15.7435 10.2392 16.5702V16.5702ZM21.6077 10.0255C21.6075 10.3165 21.6937 10.6009 21.8552 10.8429C22.0168 11.0849 22.2464 11.2736 22.5152 11.385C22.784 11.4965 23.0797 11.5258 23.3651 11.4691C23.6505 11.4125 23.9127 11.2725 24.1185 11.0668C24.3243 10.8612 24.4646 10.5991 24.5214 10.3138C24.5783 10.0285 24.5493 9.73267 24.4381 9.46381C24.3269 9.19496 24.1384 8.96513 23.8966 8.80338C23.6547 8.64163 23.3704 8.55522 23.0794 8.55509V8.55509C22.6894 8.55526 22.3154 8.71022 22.0396 8.98592C21.7638 9.26163 21.6087 9.63554 21.6083 10.0255H21.6077ZM11.5821 26.5495C10.8047 26.5409 10.0346 26.3987 9.30545 26.1289C8.77667 25.9251 8.29642 25.6128 7.89562 25.2122C7.49482 24.8115 7.18235 24.3314 6.97831 23.8027C6.70841 23.0736 6.56614 22.3034 6.55773 21.526C6.4982 20.2338 6.48655 19.8456 6.48655 16.5718C6.48655 13.298 6.49949 12.9108 6.55773 11.6173C6.56716 10.84 6.7094 10.07 6.97831 9.34061C7.18211 8.81167 7.49449 8.3313 7.89532 7.93048C8.29614 7.52965 8.77651 7.21727 9.30545 7.01347C10.0346 6.74358 10.8047 6.60131 11.5821 6.59289C12.8743 6.53336 13.2625 6.52171 16.535 6.52171C19.8075 6.52171 20.1961 6.53433 21.4896 6.59321C22.2669 6.60264 23.0369 6.74488 23.7663 7.0138C24.2952 7.21761 24.7756 7.53 25.1764 7.93082C25.5772 8.33164 25.8896 8.812 26.0934 9.34094C26.3633 10.0701 26.5055 10.8402 26.514 11.6176C26.5735 12.9117 26.5852 13.298 26.5852 16.5722C26.5852 19.8463 26.5732 20.2332 26.514 21.5267C26.5049 22.304 26.3627 23.0741 26.0934 23.8033C25.8894 24.332 25.5769 24.8122 25.1761 25.2128C24.7753 25.6134 24.295 25.9257 23.7663 26.1295C23.0371 26.3994 22.267 26.5417 21.4896 26.5501C20.1974 26.6097 19.8092 26.6213 16.535 26.6213C13.2609 26.6213 12.874 26.6093 11.5821 26.5501V26.5495ZM11.4805 4.38545C10.4633 4.40545 9.45686 4.59798 8.50408 4.95485C7.68959 5.26976 6.9499 5.7514 6.33243 6.36888C5.71495 6.98636 5.23331 7.72605 4.9184 8.54053C4.56157 9.49333 4.36904 10.4998 4.34899 11.517C4.28849 12.8241 4.2749 13.2421 4.2749 16.5715C4.2749 19.9009 4.28882 20.3186 4.34899 21.626C4.36904 22.6432 4.56157 23.6497 4.9184 24.6025C5.23333 25.4169 5.71497 26.1566 6.33245 26.7741C6.94992 27.3916 7.6896 27.8732 8.50408 28.1881C9.45691 28.5449 10.4633 28.7374 11.4805 28.7576C12.7883 28.8171 13.2056 28.8317 16.535 28.8317C19.8645 28.8317 20.2822 28.8177 21.5896 28.7576C22.6068 28.7375 23.6132 28.5449 24.566 28.1881C25.3805 27.8732 26.1202 27.3916 26.7376 26.7741C27.3551 26.1566 27.8368 25.4169 28.1517 24.6025C28.509 23.6498 28.7015 22.6433 28.7211 21.626C28.7806 20.318 28.7942 19.9009 28.7942 16.5715C28.7942 13.2421 28.7803 12.8244 28.7211 11.517C28.7011 10.4998 28.5086 9.49331 28.1517 8.54053C27.8368 7.7262 27.3553 6.98662 26.738 6.36917C26.1207 5.75171 25.3812 5.26998 24.567 4.95485C23.6143 4.59775 22.6078 4.40521 21.5905 4.38545C20.2831 4.32559 19.8655 4.31136 16.5367 4.31136C13.2079 4.31136 12.7892 4.32527 11.4812 4.38545" fill="white"/>
</g>
<defs>
<radialGradient id="paint0_radial_72_856" cx="0" cy="0" r="1" gradientUnits="userSpaceOnUse" gradientTransform="translate(2.13562 32.2772) scale(41.8977)">
<stop offset="0.09" stop-color="#FA8F21"/>
<stop offset="0.78" stop-color="#D82D7E"/>
</radialGradient>
<radialGradient id="paint1_radial_72_856" cx="0" cy="0" r="1" gradientUnits="userSpaceOnUse" gradientTransform="translate(22.858 31.2174) scale(36.8704)">
<stop offset="0.64" stop-color="#8C3AAA" stop-opacity="0"/>
<stop offset="1" stop-color="#8C3AAA"/>
</radialGradient>
<clipPath id="clip0_72_856">
<rect width="33" height="33" fill="white"/>
</clipPath>
</defs>
</svg>
