<svg width="32" height="32" viewBox="0 0 32 32" fill="none" xmlns="http://www.w3.org/2000/svg">
<g id="twitter circle" clip-path="url(#clip0_72_860)">
<g id="twitter circle_2">
<path id="Ellipse 1" d="M16 32C24.8366 32 32 24.8366 32 16C32 7.16344 24.8366 0 16 0C7.16344 0 0 7.16344 0 16C0 24.8366 7.16344 32 16 32Z" fill="#2DAAE1"/>
<path id="Path 1" d="M26.4847 9.47968C25.7025 9.83025 24.8718 10.0604 24.0207 10.1622C24.9187 9.61768 25.5888 8.76585 25.9065 7.7648C25.0659 8.26969 24.1444 8.62554 23.1826 8.81664C22.7835 8.38502 22.2993 8.04066 21.7606 7.80523C21.2219 7.5698 20.6403 7.44839 20.0524 7.44864C19.4863 7.45162 18.9263 7.56608 18.4044 7.78548C17.8825 8.00489 17.409 8.32495 17.0108 8.72738C16.6126 9.12981 16.2976 9.60674 16.0837 10.1309C15.8699 10.6551 15.7614 11.2163 15.7644 11.7824C15.764 12.1148 15.801 12.4461 15.8748 12.7702C14.1654 12.6816 12.4942 12.2323 10.9708 11.4519C9.44745 10.6715 8.10639 9.57768 7.03574 8.24224C6.4875 9.19644 6.31961 10.3224 6.56564 11.3951C6.81167 12.4677 7.45349 13.4079 8.36278 14.0278C7.68103 14.0063 7.01456 13.8205 6.42006 13.4861V13.5408C6.4164 14.5369 6.75671 15.5037 7.38348 16.2778C8.01024 17.052 8.88504 17.586 9.86006 17.7898C9.49202 17.8913 9.11192 17.9424 8.73014 17.9418C8.45923 17.9418 8.18891 17.9163 7.92278 17.8656C8.19244 18.7226 8.7238 19.4736 9.44221 20.0132C10.1606 20.5527 11.03 20.8536 11.9282 20.8736C11.0412 21.5777 10.0233 22.0988 8.93342 22.4068C7.84357 22.7147 6.70345 22.8033 5.5791 22.6675C7.53527 23.9399 9.81896 24.6166 12.1525 24.6154C20.0399 24.6154 24.3538 18.0118 24.3538 12.2851C24.3538 12.0972 24.3494 11.9103 24.3407 11.7245C25.183 11.1089 25.909 10.3482 26.4847 9.47808V9.47968Z" fill="white"/>
</g>
</g>
<defs>
<clipPath id="clip0_72_860">
<rect width="32" height="32" fill="white"/>
</clipPath>
</defs>
</svg>
