<svg width="17" height="19" viewBox="0 0 17 19" fill="none" xmlns="http://www.w3.org/2000/svg">
<path id="Vector" fill-rule="evenodd" clip-rule="evenodd" d="M12.1763 11.9617L16.7491 16.9504C16.9098 17.1259 17.0001 17.3639 17 17.6119C16.9999 17.86 16.9095 18.0979 16.7487 18.2732C16.5878 18.4486 16.3697 18.547 16.1424 18.5469C15.915 18.5468 15.6969 18.4482 15.5362 18.2727L10.9634 13.284C9.59644 14.4391 7.87745 14.9827 6.15615 14.8041C4.43486 14.6256 2.84055 13.7384 1.69756 12.323C0.554579 10.9076 -0.0512229 9.07031 0.00339672 7.18492C0.0580164 5.29953 0.768955 3.50765 1.99158 2.17381C3.21421 0.839967 4.85669 0.0643616 6.58489 0.0047738C8.31309 -0.054814 9.99718 0.606092 11.2946 1.85304C12.592 3.09999 13.4052 4.83932 13.5688 6.71719C13.7325 8.59505 13.2342 10.4704 12.1755 11.9617H12.1763ZM6.80032 12.9826C8.15286 12.9826 9.45 12.3965 10.4064 11.3531C11.3628 10.3097 11.9001 8.89458 11.9001 7.41901C11.9001 5.94344 11.3628 4.52831 10.4064 3.48493C9.45 2.44154 8.15286 1.85538 6.80032 1.85538C5.44777 1.85538 4.15063 2.44154 3.19424 3.48493C2.23785 4.52831 1.70055 5.94344 1.70055 7.41901C1.70055 8.89458 2.23785 10.3097 3.19424 11.3531C4.15063 12.3965 5.44777 12.9826 6.80032 12.9826V12.9826Z" fill="#4C84C3"/>
</svg>
