<svg width="22" height="14" viewBox="0 0 22 14" fill="none" xmlns="http://www.w3.org/2000/svg">
<path id="Vector" d="M21.707 7.69471C21.8945 7.50718 21.9998 7.25288 21.9998 6.98771C21.9998 6.72255 21.8945 6.46824 21.707 6.28071L15.707 0.280712C15.5184 0.0985542 15.2658 -0.00224062 15.0036 3.78025e-05C14.7414 0.00231622 14.4906 0.107485 14.3052 0.292894C14.1198 0.478302 14.0146 0.729114 14.0123 0.991311C14.01 1.25351 14.1108 1.50611 14.293 1.69471L18.586 5.98771H1C0.734784 5.98771 0.48043 6.09307 0.292893 6.28061C0.105357 6.46814 0 6.7225 0 6.98771C0 7.25293 0.105357 7.50728 0.292893 7.69482C0.48043 7.88235 0.734784 7.98771 1 7.98771H18.586L14.293 12.2807C14.1108 12.4693 14.01 12.7219 14.0123 12.9841C14.0146 13.2463 14.1198 13.4971 14.3052 13.6825C14.4906 13.8679 14.7414 13.9731 15.0036 13.9754C15.2658 13.9777 15.5184 13.8769 15.707 13.6947L21.707 7.69471Z" fill="#4C84C3"/>
</svg>
