<svg width="107" height="22" viewBox="0 0 107 22" fill="none" xmlns="http://www.w3.org/2000/svg">
<g id="Logo">
<g id="Yoora">
<path id="Shape" fill-rule="evenodd" clip-rule="evenodd" d="M38.168 2.48L43.28 13.352H44.144V20H48.008V13.352H48.872L53.576 2.48H49.76L46.5359 10.4H45.7745L42.2 2.48H38.168Z" fill="black"/>
<path id="Shape_2" fill-rule="evenodd" clip-rule="evenodd" d="M57.112 19.916C58.008 20.276 59.032 20.456 60.184 20.456C61.352 20.456 62.384 20.276 63.28 19.916C64.176 19.556 64.932 19.064 65.548 18.44C66.164 17.816 66.632 17.1 66.952 16.292C67.272 15.484 67.432 14.632 67.432 13.736V13.184C67.432 12.272 67.264 11.404 66.928 10.58C66.592 9.756 66.112 9.032 65.488 8.408C64.864 7.784 64.108 7.292 63.22 6.932C62.332 6.572 61.32 6.392 60.184 6.392C59.08 6.392 58.08 6.572 57.184 6.932C56.288 7.292 55.524 7.784 54.892 8.408C54.26 9.032 53.78 9.756 53.452 10.58C53.124 11.404 52.96 12.272 52.96 13.184V13.736C52.96 14.632 53.12 15.484 53.44 16.292C53.76 17.1 54.228 17.816 54.844 18.44C55.46 19.064 56.216 19.556 57.112 19.916ZM62.056 16.736C61.56 17.056 60.936 17.216 60.184 17.216C59.464 17.216 58.848 17.056 58.336 16.736C57.824 16.416 57.44 15.968 57.184 15.392C56.928 14.816 56.8 14.176 56.8 13.472C56.8 12.72 56.932 12.06 57.196 11.492C57.46 10.924 57.848 10.472 58.36 10.136C58.872 9.8 59.48 9.632 60.184 9.632C60.904 9.632 61.516 9.8 62.02 10.136C62.524 10.472 62.912 10.924 63.184 11.492C63.456 12.06 63.592 12.72 63.592 13.472C63.592 14.176 63.46 14.816 63.196 15.392C62.932 15.968 62.552 16.416 62.056 16.736Z" fill="black"/>
<path id="Shape_3" fill-rule="evenodd" clip-rule="evenodd" d="M73.0559 19.916C73.9519 20.276 74.9759 20.456 76.1279 20.456C77.2959 20.456 78.3279 20.276 79.2239 19.916C80.1199 19.556 80.8759 19.064 81.4919 18.44C82.1079 17.816 82.5759 17.1 82.8959 16.292C83.2159 15.484 83.3759 14.632 83.3759 13.736V13.184C83.3759 12.272 83.2079 11.404 82.8719 10.58C82.5359 9.756 82.0559 9.032 81.4319 8.408C80.8079 7.784 80.0519 7.292 79.1639 6.932C78.2759 6.572 77.2639 6.392 76.1279 6.392C75.0239 6.392 74.0239 6.572 73.1279 6.932C72.2319 7.292 71.4679 7.784 70.8359 8.408C70.2039 9.032 69.7239 9.756 69.3959 10.58C69.0679 11.404 68.9039 12.272 68.9039 13.184V13.736C68.9039 14.632 69.0639 15.484 69.3839 16.292C69.7039 17.1 70.1719 17.816 70.7879 18.44C71.4039 19.064 72.1599 19.556 73.0559 19.916ZM77.9999 16.736C77.5039 17.056 76.8799 17.216 76.1279 17.216C75.4079 17.216 74.7919 17.056 74.2799 16.736C73.7679 16.416 73.3839 15.968 73.1279 15.392C72.8719 14.816 72.7439 14.176 72.7439 13.472C72.7439 12.72 72.8759 12.06 73.1399 11.492C73.4039 10.924 73.7919 10.472 74.3039 10.136C74.8159 9.8 75.4239 9.632 76.1279 9.632C76.8479 9.632 77.4599 9.8 77.9639 10.136C78.4679 10.472 78.8559 10.924 79.1279 11.492C79.3999 12.06 79.5359 12.72 79.5359 13.472C79.5359 14.176 79.4039 14.816 79.1399 15.392C78.8759 15.968 78.4959 16.416 77.9999 16.736Z" fill="black"/>
<path id="Path" d="M85.6639 20V6.848H88.7119V12.488H88.6399C88.6399 10.632 89.0359 9.2 89.8279 8.192C90.6199 7.184 91.7679 6.68 93.2719 6.68H93.7759V9.992H92.8159C91.7599 9.992 90.9439 10.276 90.3679 10.844C89.7919 11.412 89.5039 12.232 89.5039 13.304V20H85.6639Z" fill="black"/>
<path id="Shape_4" fill-rule="evenodd" clip-rule="evenodd" d="M103.24 17.478V20H106.288V11.936C106.288 10.72 106.048 9.724 105.568 8.948C105.088 8.172 104.388 7.592 103.468 7.208C102.548 6.824 101.416 6.632 100.072 6.632C99.608 6.632 99.112 6.64 98.584 6.656C98.056 6.672 97.544 6.696 97.048 6.728C96.552 6.76 96.12 6.792 95.752 6.824V10.064C96.248 10.032 96.8 10 97.408 9.968C98.016 9.936 98.608 9.912 99.184 9.896C99.76 9.88 100.224 9.872 100.576 9.872C101.28 9.872 101.792 10.04 102.112 10.376C102.432 10.712 102.592 11.216 102.592 11.888V11.936H100.216C99.048 11.936 98.016 12.084 97.12 12.38C96.224 12.676 95.528 13.132 95.032 13.748C94.536 14.364 94.288 15.152 94.288 16.112C94.288 16.992 94.488 17.748 94.888 18.38C95.288 19.012 95.844 19.496 96.556 19.832C97.268 20.168 98.096 20.336 99.04 20.336C99.952 20.336 100.724 20.168 101.356 19.832C101.988 19.496 102.484 19.016 102.844 18.392C103.003 18.1156 103.135 17.8109 103.24 17.478ZM102.592 15.128V14.072H100.192C99.52 14.072 99.004 14.236 98.644 14.564C98.284 14.892 98.104 15.336 98.104 15.896C98.104 16.424 98.284 16.852 98.644 17.18C99.004 17.508 99.52 17.672 100.192 17.672C100.624 17.672 101.012 17.596 101.356 17.444C101.7 17.292 101.984 17.032 102.208 16.664C102.432 16.296 102.56 15.784 102.592 15.128Z" fill="black"/>
</g>
<g id="Symbol">
<rect id="Shape_5" x="24" y="14" width="8" height="24" transform="rotate(90 24 14)" fill="#004050"/>
<path id="Shape_6" d="M12 12C5.37258 12 0 6.62742 0 0L24 0C24 6.62742 18.6274 12 12 12Z" fill="#00D565"/>
</g>
</g>
</svg>
